<svg xmlns="http://www.w3.org/2000/svg" width="196" height="32" viewBox="0 0 196 32" fill="none"><g clip-path="url(#clip0_4684_195)"><path d="M33.3303 11.5601H35.8215C36.0285 11.5601 36.1967 11.7317 36.1967 11.9441V13.9239C36.1967 13.9566 36.2224 13.9829 36.2543 13.9829C36.28 13.9829 36.3017 13.9659 36.3091 13.9408C36.6975 12.5973 37.967 11.4048 40.1724 11.4048C40.3885 11.4048 40.6303 11.4177 40.8796 11.4626C41.0569 11.4947 41.1853 11.6564 41.1853 11.8408V13.9029C41.1853 14.1282 40.9959 14.3056 40.7763 14.2846C40.5688 14.2648 40.3754 14.2548 40.1724 14.2548C37.9944 14.2548 36.1967 15.6025 36.1967 18.7642V24.6521C36.1967 24.864 36.0291 25.0362 35.8215 25.0362H33.3303C33.1233 25.0362 32.9551 24.8646 32.9551 24.6521V11.9436C32.9551 11.7317 33.1228 11.5595 33.3303 11.5595V11.5601Z" fill="black"></path><path d="M63.0607 20.786H65.2422C65.4178 20.786 65.5667 20.9126 65.6078 21.0877C65.8906 22.2924 66.9069 22.7821 68.3145 22.7821C69.722 22.7821 70.695 22.2895 70.695 21.1496C70.695 20.3202 70.1634 19.9058 69.15 19.6986L66.7187 19.1547C64.0599 18.5325 63.0214 17.1072 63.0214 15.2932C63.0214 12.7537 65.1487 11.3021 68.3139 11.3021C71.4791 11.3021 73.3629 12.7764 73.5853 15.3691C73.6047 15.5926 73.4296 15.7858 73.21 15.7858H71.2328C71.0571 15.7858 70.9077 15.6597 70.8672 15.4846C70.5797 14.2408 69.6558 13.8159 68.339 13.8159C66.8955 13.8159 66.161 14.3085 66.161 15.2412C66.161 16.0187 66.6925 16.5113 67.7561 16.7185L70.2632 17.2887C72.3397 17.7813 74.0364 18.714 74.0364 21.0726C74.0364 24.0527 71.352 25.2971 68.2882 25.2971C65.054 25.2971 62.9005 23.9552 62.6843 21.2039C62.6667 20.9803 62.8406 20.7877 63.0596 20.7877L63.0607 20.786Z" fill="black"></path><path d="M50.1175 23.8274L52.4444 15.9656L54.7473 23.8222C55.0039 24.6977 55.7915 25.2977 56.6846 25.2977H57.1352C58.0471 25.2977 58.8461 24.6732 59.0868 23.7726L62.2161 12.0446C62.2811 11.8006 62.1015 11.5595 61.854 11.5595H59.5499C59.3771 11.5595 59.2265 11.6804 59.1855 11.852L56.8118 21.745C56.8044 21.7753 56.7782 21.7963 56.7479 21.7963C56.7183 21.7963 56.6926 21.7765 56.6846 21.7473L53.9146 11.8374C53.8684 11.6728 53.7213 11.559 53.5542 11.559H51.3089C51.1412 11.559 50.9941 11.6728 50.9484 11.8374L48.1784 21.7473C48.1704 21.7765 48.1448 21.7963 48.1151 21.7963C48.0849 21.7963 48.0587 21.7753 48.0513 21.745L45.6776 11.852C45.6366 11.6804 45.486 11.5595 45.3132 11.5595H43.0336C42.7867 11.5595 42.607 11.8 42.6715 12.044L45.778 23.7691C46.0169 24.6714 46.8171 25.2977 47.7302 25.2977H48.1819C49.0733 25.2977 49.8597 24.7006 50.1181 23.8274H50.1175Z" fill="black"></path><path d="M18.8667 19.6706C14.3681 19.6706 10.7215 15.9387 10.7215 11.3348C10.7215 10.586 10.8179 9.8599 10.9992 9.16943C7.5226 10.1202 4.96246 13.3659 4.96246 17.2233C4.96246 19.6146 5.94625 21.7706 7.52203 23.2904L13.1077 29.0068L18.6933 23.2904C18.7521 23.2338 18.8097 23.1766 18.8667 23.1183V19.6706Z" fill="#8353FD"></path><path d="M18.8667 2.99841C15.0998 2.99841 11.9305 5.61495 10.9987 9.16942C11.6711 8.98557 12.3782 8.88752 13.1077 8.88752C17.6063 8.88752 21.2529 12.6194 21.2529 17.2233C21.2529 19.5258 20.3409 21.6101 18.8667 23.1183L24.4523 17.4019C26.0281 15.8821 27.0119 13.726 27.0119 11.3348C27.0119 6.7309 23.3653 2.999 18.8667 2.999V2.99841Z" fill="#E60054"></path><path d="M13.1076 8.88696C12.3782 8.88696 11.6716 8.98502 10.9986 9.16887C10.8178 9.85934 10.7209 10.5854 10.7209 11.3342C10.7209 15.9381 14.3675 19.67 18.8661 19.67V23.1177C20.3403 21.6089 21.2523 19.5247 21.2523 17.2228C21.2523 12.6189 17.6057 8.88696 13.1071 8.88696H13.1076Z" fill="#3E016F"></path><line x1="93.5" y1="3.0316e-08" x2="93.5" y2="31" stroke="black"></line><path d="M111.04 24V10H116.7C120.42 10 122.04 11.94 122.04 14.68C122.04 17.4 120.42 19.34 116.7 19.34H114.04V24H111.04ZM116.6 16.74C118.24 16.74 118.96 15.92 118.96 14.68C118.96 13.42 118.24 12.6 116.6 12.6H114.04V16.74H116.6ZM123.618 24V13.6H126.538V16.12H126.618C126.978 14.6 127.958 13.48 129.618 13.48C129.858 13.48 130.118 13.5 130.418 13.58V16.04C130.098 16 129.858 15.98 129.598 15.98C128.038 15.98 126.538 16.88 126.538 19.4V24H123.618ZM136.229 24.2C133.609 24.2 131.009 22.58 131.009 18.8C131.009 15.02 133.609 13.4 136.229 13.4C138.849 13.4 141.449 15.02 141.449 18.8C141.449 22.58 138.849 24.2 136.229 24.2ZM136.229 21.78C137.629 21.78 138.709 20.86 138.709 18.8C138.709 16.74 137.629 15.82 136.229 15.82C134.829 15.82 133.749 16.74 133.749 18.8C133.749 20.86 134.829 21.78 136.229 21.78ZM143.032 27.8V13.6H145.952V15.1C146.332 14.2 147.472 13.4 149.012 13.4C151.192 13.4 153.572 14.98 153.572 18.8C153.572 22.62 151.192 24.2 149.012 24.2C147.472 24.2 146.332 23.4 145.952 22.5V27.8H143.032ZM148.312 21.78C149.612 21.78 150.812 20.84 150.812 18.8C150.812 16.76 149.612 15.82 148.312 15.82C147.032 15.82 145.832 16.76 145.832 18.8C145.832 20.84 147.032 21.78 148.312 21.78ZM154.798 25.54C156.858 25.8 157.358 25.04 157.598 24.48C157.818 23.96 157.818 23.64 157.578 23.06L153.758 13.6H156.758L159.178 20.32L161.658 13.6H164.658L160.398 24.08C159.098 27.3 157.778 28.32 154.798 28V25.54ZM165.942 24V10H168.862V24H165.942ZM175.662 24.2C173.042 24.2 170.442 22.58 170.442 18.8C170.442 15.02 173.042 13.4 175.662 13.4C178.282 13.4 180.882 15.02 180.882 18.8C180.882 22.58 178.282 24.2 175.662 24.2ZM175.662 21.78C177.062 21.78 178.142 20.86 178.142 18.8C178.142 16.74 177.062 15.82 175.662 15.82C174.262 15.82 173.182 16.74 173.182 18.8C173.182 20.86 174.262 21.78 175.662 21.78ZM189.486 18.1C189.486 16.52 188.786 15.82 187.566 15.82C186.346 15.82 185.386 16.52 185.386 18.1V24H182.466V13.6H185.386V15.78H185.506C185.686 14.8 186.686 13.4 188.826 13.4C190.846 13.4 192.406 14.7 192.406 17.4V24H189.486V18.1Z" fill="black"></path></g><defs><clipPath id="clip0_4684_195"><rect width="196" height="32" fill="white"></rect></clipPath></defs></svg>